ffmpeg started on 2016-12-08 at 10:38:55
Report written to "Output/x264/results/ffmpeg/crowd_run_2160p50veryslow1000k.log"
Command line:
Tools/ffmpeg/ffmpeg -benchmark -y -i Input/y4m/crowd_run_2160p50.y4m -c:v libx264 -preset veryslow -b:v 1000k -an Output/x264/encoded/crowd_run_2160p50veryslow1000k.mkv
ffmpeg version N-82227-gdb23fde Copyright (c) 2000-2016 the FFmpeg developers
  built with gcc 5.4.0 (Ubuntu 5.4.0-6ubuntu1~16.04.2) 20160609
  configuration: --prefix=/home/jaroslav/ffmpeg_build --pkg-config-flags=--static --extra-cflags=-I/home/jaroslav/ffmpeg_build/include --extra-ldflags=-L/home/jaroslav/ffmpeg_build/lib --bindir=/home/jaroslav/bin --enable-gpl --enable-libass --enable-libfdk-aac --enable-libfreetype --enable-libmp3lame --enable-libopus --enable-libtheora --enable-libvorbis --enable-libvpx --enable-libx264 --enable-libx265 --enable-nvenc --enable-libmfx --enable-libxvid --enable-libgsm --enable-libopencore-amrnb --enable-version3 --enable-nonfree
  libavutil      55. 35.100 / 55. 35.100
  libavcodec     57. 66.101 / 57. 66.101
  libavformat    57. 57.100 / 57. 57.100
  libavdevice    57.  2.100 / 57.  2.100
  libavfilter     6. 66.100 /  6. 66.100
  libswscale      4.  3.100 /  4.  3.100
  libswresample   2.  4.100 /  2.  4.100
  libpostproc    54.  2.100 / 54.  2.100
Input #0, yuv4mpegpipe, from 'Input/y4m/crowd_run_2160p50.y4m':
  Duration: 00:00:10.00, start: 0.000000, bitrate: 4976642 kb/s
    Stream #0:0: Video: rawvideo (I420 / 0x30323449), yuv420p(progressive), 3840x2160, SAR 1:1 DAR 16:9, 50 fps, 50 tbr, 50 tbn, 50 tbc
[libx264 @ 0x3e881c0] using SAR=1/1
[libx264 @ 0x3e881c0] DPB size (16 frames, 518400 mbs) > level limit (5 frames, 184320 mbs)
[libx264 @ 0x3e881c0] using cpu capabilities: MMX2 SSE2Fast SSSE3 SSE4.2 AVX FMA3 AVX2 LZCNT BMI2
[libx264 @ 0x3e881c0] profile High, level 5.2
[libx264 @ 0x3e881c0] 264 - core 148 - H.264/MPEG-4 AVC codec - Copyleft 2003-2016 - http://www.videolan.org/x264.html - options: cabac=1 ref=16 deblock=1:0:0 analyse=0x3:0x133 me=umh subme=10 psy=1 psy_rd=1.00:0.00 mixed_ref=1 me_range=24 chroma_me=1 trellis=2 8x8dct=1 cqm=0 deadzone=21,11 fast_pskip=1 chroma_qp_offset=-2 threads=6 lookahead_threads=1 sliced_threads=0 nr=0 decimate=1 interlaced=0 bluray_compat=0 constrained_intra=0 bframes=8 b_pyramid=2 b_adapt=2 b_bias=0 direct=3 weightb=1 open_gop=0 weightp=2 keyint=250 keyint_min=25 scenecut=40 intra_refresh=0 rc_lookahead=60 rc=abr mbtree=1 bitrate=1000 ratetol=1.0 qcomp=0.60 qpmin=0 qpmax=69 qpstep=4 ip_ratio=1.40 aq=1:1.00
Output #0, matroska, to 'Output/x264/encoded/crowd_run_2160p50veryslow1000k.mkv':
  Metadata:
    encoder         : Lavf57.57.100
    Stream #0:0: Video: h264 (libx264) (H264 / 0x34363248), yuv420p, 3840x2160 [SAR 1:1 DAR 16:9], q=-1--1, 1000 kb/s, 50 fps, 1k tbn, 50 tbc
    Metadata:
      encoder         : Lavc57.66.101 libx264
    Side data:
      cpb: bitrate max/min/avg: 0/0/1000000 buffer size: 0 vbv_delay: -1
Stream mapping:
  Stream #0:0 -> #0:0 (rawvideo (native) -> h264 (libx264))
Press [q] to stop, [?] for help
frame=   18 fps=0.0 q=0.0 size=       0kB time=00:00:00.00 bitrate=N/A speed=   0x    frame=   27 fps= 26 q=0.0 size=       0kB time=00:00:00.00 bitrate=N/A speed=   0x    frame=   34 fps= 22 q=0.0 size=       0kB time=00:00:00.00 bitrate=N/A speed=   0x    frame=   39 fps= 18 q=0.0 size=       0kB time=00:00:00.00 bitrate=N/A speed=   0x    frame=   45 fps= 15 q=0.0 size=       0kB time=00:00:00.00 bitrate=N/A speed=   0x    frame=   52 fps= 15 q=0.0 size=       0kB time=00:00:00.00 bitrate=N/A speed=   0x    frame=   56 fps= 14 q=0.0 size=       0kB time=00:00:00.00 bitrate=N/A speed=   0x    frame=   60 fps= 13 q=0.0 size=       0kB time=00:00:00.00 bitrate=N/A speed=   0x    frame=   67 fps= 13 q=0.0 size=       0kB time=00:00:00.00 bitrate=N/A speed=   0x    frame=   72 fps=5.7 q=0.0 size=       0kB time=00:00:00.00 bitrate=N/A speed=   0x    frame=   77 fps=5.8 q=62.0 size=       1kB time=-00:00:00.01 bitrate=N/A speed=N/A    frame=   78 fps=5.3 q=58.0 size=       1kB time=00:00:00.00 bitrate=5888.0kbits/s speed=6.83e-05x    frame=   82 fps=5.1 q=65.0 size=       1kB time=00:00:00.08 bitrate=  72.7kbits/s speed=0.00503x    frame=   86 fps=4.8 q=69.0 size=       1kB time=00:00:00.16 bitrate=  36.6kbits/s speed=0.00903x    frame=   90 fps=4.6 q=69.0 size=       1kB time=00:00:00.24 bitrate=  24.4kbits/s speed=0.0124x    frame=   94 fps=4.5 q=69.0 size=       1kB time=00:00:00.32 bitrate=  18.3kbits/s speed=0.0154x    frame=   98 fps=4.4 q=69.0 size=       1kB time=00:00:00.40 bitrate=  14.7kbits/s speed=0.0179x    frame=  102 fps=4.3 q=69.0 size=       1kB time=00:00:00.48 bitrate=  12.2kbits/s speed=0.0202x    frame=  106 fps=4.2 q=69.0 size=       1kB time=00:00:00.56 bitrate=  10.5kbits/s speed=0.0222x    frame=  108 fps=4.2 q=69.0 size=       1kB time=00:00:00.60 bitrate=   9.8kbits/s speed=0.0233x    frame=  110 fps=4.1 q=69.0 size=       1kB time=00:00:00.64 bitrate=   9.2kbits/s speed=0.024x    frame=  113 fps=4.2 q=69.0 size=       1kB time=00:00:00.70 bitrate=   8.4kbits/s speed=0.0258x    frame=  115 fps=4.0 q=69.0 size=       1kB time=00:00:00.74 bitrate=   7.9kbits/s speed=0.0259x    frame=  119 fps=4.0 q=69.0 size=       1kB time=00:00:00.82 bitrate=   7.2kbits/s speed=0.0274x    frame=  123 fps=3.9 q=69.0 size=       1kB time=00:00:00.90 bitrate=   6.5kbits/s speed=0.0289x    frame=  125 fps=3.9 q=69.0 size=       1kB time=00:00:00.94 bitrate=   6.3kbits/s speed=0.0297x    frame=  128 fps=3.9 q=69.0 size=       1kB time=00:00:01.00 bitrate=   5.9kbits/s speed=0.0303x    frame=  132 fps=3.9 q=69.0 size=       1kB time=00:00:01.08 bitrate=   5.4kbits/s speed=0.0316x    frame=  133 fps=3.8 q=69.0 size=       1kB time=00:00:01.10 bitrate=   5.3kbits/s speed=0.0317x    frame=  136 fps=3.8 q=69.0 size=       1kB time=00:00:01.16 bitrate=   5.1kbits/s speed=0.0327x    frame=  138 fps=3.8 q=69.0 size=       1kB time=00:00:01.20 bitrate=   4.9kbits/s speed=0.0333x    frame=  140 fps=3.8 q=69.0 size=       1kB time=00:00:01.24 bitrate=   4.7kbits/s speed=0.0336x    frame=  142 fps=3.8 q=69.0 size=       1kB time=00:00:01.28 bitrate=   4.6kbits/s speed=0.0342x    frame=  145 fps=3.7 q=69.0 size=       1kB time=00:00:01.34 bitrate=   4.4kbits/s speed=0.0345x    frame=  150 fps=3.7 q=69.0 size=       1kB time=00:00:01.44 bitrate=   4.1kbits/s speed=0.0354x    frame=  155 fps=3.7 q=69.0 size=       1kB time=00:00:01.54 bitrate=   3.8kbits/s speed=0.0367x    frame=  157 fps=3.7 q=69.0 size=       1kB time=00:00:01.58 bitrate=   3.7kbits/s speed=0.0371x    frame=  159 fps=3.7 q=69.0 size=       1kB time=00:00:01.62 bitrate=   3.6kbits/s speed=0.0373x    frame=  162 fps=3.7 q=69.0 size=       1kB time=00:00:01.68 bitrate=   3.5kbits/s speed=0.0382x    frame=  163 fps=3.6 q=69.0 size=       1kB time=00:00:01.70 bitrate=   3.5kbits/s speed=0.0379x    frame=  167 fps=3.6 q=69.0 size=       1kB time=00:00:01.78 bitrate=   3.3kbits/s speed=0.0385x    frame=  170 fps=3.6 q=69.0 size=       1kB time=00:00:01.84 bitrate=   3.2kbits/s speed=0.0391x    frame=  172 fps=3.6 q=69.0 size=       1kB time=00:00:01.88 bitrate=   3.1kbits/s speed=0.039x    frame=  176 fps=3.6 q=69.0 size=       1kB time=00:00:01.96 bitrate=   3.0kbits/s speed=0.0402x    frame=  177 fps=3.6 q=69.0 size=       1kB time=00:00:01.98 bitrate=   3.0kbits/s speed=0.0398x    frame=  181 fps=3.5 q=69.0 size=       1kB time=00:00:02.06 bitrate=   2.9kbits/s speed=0.0402x    frame=  184 fps=3.6 q=69.0 size=       1kB time=00:00:02.12 bitrate=   2.8kbits/s speed=0.041x    frame=  186 fps=3.5 q=69.0 size=       1kB time=00:00:02.16 bitrate=   2.7kbits/s speed=0.0406x    frame=  191 fps=3.5 q=69.0 size=       1kB time=00:00:02.26 bitrate=   2.6kbits/s speed=0.041x    frame=  196 fps=3.4 q=69.0 size=       1kB time=00:00:02.36 bitrate=   2.5kbits/s speed=0.0415x    frame=  200 fps=3.4 q=69.0 size=       1kB time=00:00:02.44 bitrate=   2.4kbits/s speed=0.042x    frame=  203 fps=3.5 q=69.0 size=       1kB time=00:00:02.50 bitrate=   2.4kbits/s speed=0.0426x    frame=  205 fps=3.4 q=69.0 size=       1kB time=00:00:02.54 bitrate=   2.3kbits/s speed=0.0423x    frame=  209 fps=3.4 q=69.0 size=       1kB time=00:00:02.62 bitrate=   2.2kbits/s speed=0.0428x    frame=  211 fps=3.4 q=69.0 size=       1kB time=00:00:02.66 bitrate=   2.2kbits/s speed=0.0431x    frame=  214 fps=3.4 q=69.0 size=       1kB time=00:00:02.72 bitrate=   2.2kbits/s speed=0.0431x    frame=  219 fps=3.4 q=69.0 size=       1kB time=00:00:02.82 bitrate=   2.1kbits/s speed=0.0434x    frame=  224 fps=3.3 q=69.0 size=       1kB time=00:00:02.92 bitrate=   2.0kbits/s speed=0.0436x    frame=  229 fps=3.3 q=69.0 size=       1kB time=00:00:03.02 bitrate=   1.9kbits/s speed=0.0439x    frame=  234 fps=3.3 q=69.0 size=       1kB time=00:00:03.12 bitrate=   1.9kbits/s speed=0.0441x    frame=  239 fps=3.3 q=69.0 size=       1kB time=00:00:03.22 bitrate=   1.8kbits/s speed=0.0442x    frame=  245 fps=3.3 q=69.0 size=       1kB time=00:00:03.34 bitrate=   1.8kbits/s speed=0.0447x    frame=  249 fps=3.3 q=69.0 size=       1kB time=00:00:03.42 bitrate=   1.7kbits/s speed=0.0454x    frame=  250 fps=3.3 q=69.0 size=       1kB time=00:00:03.44 bitrate=   1.7kbits/s speed=0.045x    frame=  255 fps=3.3 q=69.0 size=       1kB time=00:00:03.54 bitrate=   1.7kbits/s speed=0.0457x    frame=  256 fps=3.3 q=69.0 size=       1kB time=00:00:03.56 bitrate=   1.7kbits/s speed=0.0454x    frame=  260 fps=3.3 q=69.0 size=       1kB time=00:00:03.64 bitrate=   1.6kbits/s speed=0.0458x    frame=  263 fps=3.3 q=69.0 size=       1kB time=00:00:03.70 bitrate=   1.6kbits/s speed=0.0462x    frame=  264 fps=3.3 q=69.0 size=       1kB time=00:00:03.72 bitrate=   1.6kbits/s speed=0.0462x    frame=  268 fps=3.3 q=69.0 size=       1kB time=00:00:03.80 bitrate=   1.5kbits/s speed=0.0464x    frame=  272 fps=3.3 q=69.0 size=       1kB time=00:00:03.88 bitrate=   1.5kbits/s speed=0.0467x    frame=  275 fps=3.3 q=69.0 size=       1kB time=00:00:03.94 bitrate=   1.5kbits/s speed=0.0472x    frame=  277 fps=3.3 q=69.0 size=       1kB time=00:00:03.98 bitrate=   1.5kbits/s speed=0.0468x    frame=  281 fps=3.3 q=69.0 size=       1kB time=00:00:04.06 bitrate=   1.4kbits/s speed=0.0471x    frame=  282 fps=3.2 q=69.0 size=       1kB time=00:00:04.08 bitrate=   1.4kbits/s speed=0.047x    frame=  285 fps=3.2 q=69.0 size=       1kB time=00:00:04.14 bitrate=   1.4kbits/s speed=0.0472x    frame=  289 fps=3.2 q=69.0 size=       1kB time=00:00:04.22 bitrate=   1.4kbits/s speed=0.0473x    frame=  292 fps=3.3 q=69.0 size=       1kB time=00:00:04.28 bitrate=   1.4kbits/s speed=0.0477x    frame=  294 fps=3.2 q=69.0 size=       1kB time=00:00:04.32 bitrate=   1.4kbits/s speed=0.0474x    frame=  298 fps=3.2 q=69.0 size=       1kB time=00:00:04.40 bitrate=   1.3kbits/s speed=0.0477x    frame=  299 fps=3.2 q=69.0 size=       1kB time=00:00:04.42 bitrate=   1.3kbits/s speed=0.0476x    frame=  302 fps=3.2 q=69.0 size=       1kB time=00:00:04.48 bitrate=   1.3kbits/s speed=0.0478x    frame=  303 fps=3.2 q=69.0 size=       1kB time=00:00:04.50 bitrate=   1.3kbits/s speed=0.0478x    frame=  306 fps=3.2 q=69.0 size=       1kB time=00:00:04.56 bitrate=   1.3kbits/s speed=0.048x    frame=  307 fps=3.2 q=69.0 size=       1kB time=00:00:04.58 bitrate=   1.3kbits/s speed=0.0479x    frame=  310 fps=3.2 q=69.0 size=       1kB time=00:00:04.64 bitrate=   1.3kbits/s speed=0.0481x    frame=  311 fps=3.2 q=69.0 size=       1kB time=00:00:04.66 bitrate=   1.3kbits/s speed=0.048x    frame=  314 fps=3.2 q=69.0 size=       1kB time=00:00:04.72 bitrate=   1.2kbits/s speed=0.0482x    frame=  315 fps=3.2 q=69.0 size=       1kB time=00:00:04.74 bitrate=   1.2kbits/s speed=0.0482x    frame=  319 fps=3.2 q=69.0 size=       1kB time=00:00:04.82 bitrate=   1.2kbits/s speed=0.0483x    frame=  322 fps=3.2 q=69.0 size=       1kB time=00:00:04.88 bitrate=   1.2kbits/s speed=0.0484x    frame=  327 fps=3.2 q=69.0 size=     798kB time=00:00:04.98 bitrate=1313.1kbits/s speed=0.0487x    frame=  331 fps=3.2 q=69.0 size=     798kB time=00:00:05.06 bitrate=1292.3kbits/s speed=0.0488x    frame=  336 fps=3.2 q=69.0 size=     798kB time=00:00:05.16 bitrate=1267.3kbits/s speed=0.0489x    frame=  340 fps=3.2 q=69.0 size=     798kB time=00:00:05.24 bitrate=1247.9kbits/s speed=0.0489x    frame=  344 fps=3.2 q=69.0 size=     798kB time=00:00:05.32 bitrate=1229.2kbits/s speed=0.0489x    frame=  348 fps=3.2 q=69.0 size=     798kB time=00:00:05.40 bitrate=1211.0kbits/s speed=0.0489x    frame=  352 fps=3.1 q=69.0 size=     798kB time=00:00:05.48 bitrate=1193.3kbits/s speed=0.0489x    frame=  354 fps=3.1 q=69.0 size=     798kB time=00:00:05.52 bitrate=1184.6kbits/s speed=0.0491x    frame=  356 fps=3.1 q=69.0 size=     798kB time=00:00:05.56 bitrate=1176.1kbits/s speed=0.0491x    frame=  357 fps=3.1 q=69.0 size=     798kB time=00:00:05.58 bitrate=1171.9kbits/s speed=0.0489x    frame=  360 fps=3.1 q=69.0 size=     798kB time=00:00:05.64 bitrate=1159.4kbits/s speed=0.0492x    frame=  361 fps=3.1 q=69.0 size=     798kB time=00:00:05.66 bitrate=1155.3kbits/s speed=0.049x    frame=  365 fps=3.1 q=69.0 size=     798kB time=00:00:05.74 bitrate=1139.2kbits/s speed=0.0491x    frame=  369 fps=3.1 q=69.0 size=     798kB time=00:00:05.82 bitrate=1123.6kbits/s speed=0.0492x    frame=  373 fps=3.1 q=69.0 size=     798kB time=00:00:05.90 bitrate=1108.4kbits/s speed=0.0492x    frame=  377 fps=3.1 q=69.0 size=     798kB time=00:00:05.98 bitrate=1093.5kbits/s speed=0.0496x    frame=  378 fps=3.1 q=69.0 size=     798kB time=00:00:06.00 bitrate=1089.9kbits/s speed=0.0495x    frame=  382 fps=3.1 q=69.0 size=     798kB time=00:00:06.08 bitrate=1075.5kbits/s speed=0.0495x    frame=  386 fps=3.1 q=69.0 size=     798kB time=00:00:06.16 bitrate=1061.6kbits/s speed=0.0496x    frame=  390 fps=3.1 q=69.0 size=     798kB time=00:00:06.24 bitrate=1048.0kbits/s speed=0.0497x    frame=  394 fps=3.1 q=69.0 size=     798kB time=00:00:06.32 bitrate=1034.7kbits/s speed=0.0498x    frame=  398 fps=3.1 q=69.0 size=     798kB time=00:00:06.40 bitrate=1021.8kbits/s speed=0.0497x    frame=  402 fps=3.1 q=69.0 size=     798kB time=00:00:06.48 bitrate=1009.2kbits/s speed=0.0499x    frame=  407 fps=3.1 q=69.0 size=     798kB time=00:00:06.58 bitrate= 993.8kbits/s speed=0.05x    frame=  411 fps=3.1 q=69.0 size=     798kB time=00:00:06.66 bitrate= 981.9kbits/s speed=0.0501x    frame=  415 fps=3.1 q=69.0 size=     798kB time=00:00:06.74 bitrate= 970.2kbits/s speed=0.0502x    frame=  419 fps=3.1 q=69.0 size=     798kB time=00:00:06.82 bitrate= 958.9kbits/s speed=0.0506x    frame=  420 fps=3.1 q=69.0 size=     798kB time=00:00:06.84 bitrate= 956.1kbits/s speed=0.0504x    frame=  423 fps=3.1 q=69.0 size=     798kB time=00:00:06.90 bitrate= 947.7kbits/s speed=0.0506x    frame=  424 fps=3.1 q=69.0 size=     798kB time=00:00:06.92 bitrate= 945.0kbits/s speed=0.0505x    frame=  427 fps=3.1 q=69.0 size=     798kB time=00:00:06.98 bitrate= 936.9kbits/s speed=0.0507x    frame=  428 fps=3.1 q=69.0 size=     798kB time=00:00:07.00 bitrate= 934.2kbits/s speed=0.0505x    frame=  432 fps=3.1 q=69.0 size=     798kB time=00:00:07.08 bitrate= 923.7kbits/s speed=0.0506x    frame=  434 fps=3.1 q=69.0 size=     798kB time=00:00:07.12 bitrate= 918.5kbits/s speed=0.0507x    frame=  436 fps=3.1 q=69.0 size=     798kB time=00:00:07.16 bitrate= 913.3kbits/s speed=0.0507x    frame=  437 fps=3.1 q=69.0 size=     798kB time=00:00:07.18 bitrate= 910.8kbits/s speed=0.0506x    frame=  440 fps=3.1 q=69.0 size=     798kB time=00:00:07.24 bitrate= 903.2kbits/s speed=0.0506x    frame=  442 fps=3.1 q=69.0 size=     798kB time=00:00:07.28 bitrate= 898.3kbits/s speed=0.0507x    frame=  444 fps=3.1 q=69.0 size=     798kB time=00:00:07.32 bitrate= 893.4kbits/s speed=0.0507x    frame=  445 fps=3.1 q=69.0 size=     798kB time=00:00:07.34 bitrate= 890.9kbits/s speed=0.0506x    frame=  448 fps=3.1 q=69.0 size=     798kB time=00:00:07.40 bitrate= 883.7kbits/s speed=0.0507x    frame=  449 fps=3.1 q=69.0 size=     798kB time=00:00:07.42 bitrate= 881.3kbits/s speed=0.0506x    frame=  452 fps=3.1 q=69.0 size=     798kB time=00:00:07.48 bitrate= 874.3kbits/s speed=0.0508x    frame=  453 fps=3.1 q=69.0 size=     798kB time=00:00:07.50 bitrate= 871.9kbits/s speed=0.0506x    frame=  456 fps=3.1 q=69.0 size=     798kB time=00:00:07.56 bitrate= 865.0kbits/s speed=0.0508x    frame=  457 fps=3.1 q=69.0 size=     798kB time=00:00:07.58 bitrate= 862.7kbits/s speed=0.0506x    frame=  461 fps=3.0 q=69.0 size=     798kB time=00:00:07.66 bitrate= 853.7kbits/s speed=0.0507x    frame=  465 fps=3.1 q=69.0 size=     798kB time=00:00:07.74 bitrate= 844.9kbits/s speed=0.0508x    frame=  468 fps=3.0 q=69.0 size=     798kB time=00:00:07.80 bitrate= 838.4kbits/s speed=0.0507x    frame=  473 fps=3.0 q=69.0 size=     798kB time=00:00:07.90 bitrate= 827.8kbits/s speed=0.0508x    frame=  477 fps=3.0 q=69.0 size=     798kB time=00:00:07.98 bitrate= 819.5kbits/s speed=0.051x    frame=  478 fps=3.0 q=69.0 size=     798kB time=00:00:08.00 bitrate= 817.4kbits/s speed=0.0509x    frame=  481 fps=3.0 q=69.0 size=     798kB time=00:00:08.06 bitrate= 811.4kbits/s speed=0.051x    frame=  482 fps=3.0 q=69.0 size=     798kB time=00:00:08.08 bitrate= 809.4kbits/s speed=0.0509x    frame=  485 fps=3.0 q=69.0 size=     798kB time=00:00:08.14 bitrate= 803.4kbits/s speed=0.051x    frame=  486 fps=3.0 q=69.0 size=     798kB time=00:00:08.16 bitrate= 801.4kbits/s speed=0.0509x    frame=  490 fps=3.0 q=69.0 size=     798kB time=00:00:08.24 bitrate= 793.6kbits/s speed=0.0509x    frame=  494 fps=3.0 q=69.0 size=     798kB time=00:00:08.32 bitrate= 786.0kbits/s speed=0.051x    frame=  498 fps=3.0 q=69.0 size=     798kB time=00:00:08.40 bitrate= 778.5kbits/s speed=0.051x    frame=  500 fps=2.6 q=-1.0 Lsize=    1517kB time=00:00:09.94 bitrate=1250.3kbits/s speed=0.0524x    
video:1513kB audio:0kB subtitle:0kB other streams:0kB global headers:0kB muxing overhead: 0.279093%
bench: utime=566.480s
bench: maxrss=3373864kB
[libx264 @ 0x3e881c0] frame I:2     Avg QP:50.15  size: 32886
[libx264 @ 0x3e881c0] frame P:114   Avg QP:51.00  size: 11885
[libx264 @ 0x3e881c0] frame B:384   Avg QP:51.00  size:   333
[libx264 @ 0x3e881c0] consecutive B-frames:  0.4%  0.0%  1.2% 60.0% 30.0%  8.4%  0.0%  0.0%  0.0%
[libx264 @ 0x3e881c0] mb I  I16..4: 33.8% 66.0%  0.2%
[libx264 @ 0x3e881c0] mb P  I16..4: 19.7%  0.6%  0.0%  P16..4: 17.1%  0.0%  0.0%  0.0%  0.0%    skip:62.4%
[libx264 @ 0x3e881c0] mb B  I16..4:  0.0%  0.0%  0.0%  B16..8:  0.4%  0.0%  0.0%  direct: 0.0%  skip:99.6%  L0:26.2% L1:73.6% BI: 0.1%
[libx264 @ 0x3e881c0] final ratefactor: 62.45
[libx264 @ 0x3e881c0] 8x8 transform intra:8.1% inter:98.0%
[libx264 @ 0x3e881c0] direct mvs  spatial:99.2% temporal:0.8%
[libx264 @ 0x3e881c0] coded y,uvDC,uvAC intra: 0.6% 1.7% 0.2% inter: 0.0% 0.0% 0.0%
[libx264 @ 0x3e881c0] i16 v,h,dc,p: 96%  4%  0%  0%
[libx264 @ 0x3e881c0] i8 v,h,dc,ddl,ddr,vr,hd,vl,hu:  9%  2% 72%  4%  4%  2%  3%  2%  2%
[libx264 @ 0x3e881c0] i4 v,h,dc,ddl,ddr,vr,hd,vl,hu:  8%  4%  7% 23% 20% 10% 12%  5% 11%
[libx264 @ 0x3e881c0] i8c dc,h,v,p: 99%  1%  0%  0%
[libx264 @ 0x3e881c0] Weighted P-Frames: Y:1.8% UV:0.9%
[libx264 @ 0x3e881c0] ref P L0: 34.6%  0.8% 13.2%  7.7%  5.1%  7.4%  6.0%  3.1%  2.4%  3.3%  2.4%  3.3%  2.4%  3.3%  3.1%  1.8%
[libx264 @ 0x3e881c0] ref B L0: 95.1%  4.1%  0.4%  0.0%  0.0%  0.0%  0.1%  0.0%  0.0%  0.0%  0.0%  0.0%  0.0%  0.0%  0.0%
[libx264 @ 0x3e881c0] ref B L1: 96.1%  3.9%
[libx264 @ 0x3e881c0] kb/s:1238.89
